<svg xmlns="http://www.w3.org/2000/svg" xmlns:xlink="http://www.w3.org/1999/xlink" viewBox="0 0 197.66 63.37"><defs><style>.cls-1{fill:none;}.cls-2{clip-path:url(#clip-path);}.cls-3{font-size:28.64px;fill:#ff7697;stroke:#ff7697;font-family:HiraKakuStdN-W8-83pv-RKSJ-H, Hiragino Kaku Gothic StdN;}.cls-10,.cls-11,.cls-3,.cls-4,.cls-8,.cls-9{stroke-miterlimit:10;}.cls-4,.cls-8{fill:#fffdf0;}.cls-4{stroke:#000;stroke-width:3px;}.cls-5{fill:#ffadba;}.cls-6{fill:#fff;}.cls-7{font-size:4.9px;font-family:Kan415TyposStd-Regular-83pv-RKSJ-H, Kan415Typos Std;}.cls-8{stroke:#feffd6;stroke-width:2px;opacity:0.52;}.cls-9{stroke:#f7082b;}.cls-10,.cls-11,.cls-9{stroke-width:0.75px;}.cls-10{stroke:#fff000;}.cls-11{stroke:#07da00;}.cls-12{clip-path:url(#clip-path-2);}</style><clipPath id="clip-path"><rect class="cls-1" x="17.33" y="14.13" width="16.44" height="28.64"/></clipPath><clipPath id="clip-path-2"><rect class="cls-1" x="35.27" y="15.38" width="28.4" height="26.15"/></clipPath></defs><g id="レイヤー_2" data-name="レイヤー 2"><g id="レイヤー_1-2" data-name="レイヤー 1"><g id="レイヤー_3" data-name="レイヤー 3"><g class="cls-2"><text class="cls-3" transform="translate(21.15 39.35) scale(1.2 1)">W</text></g><polygon class="cls-4" points="50.85 46.95 30.79 54.47 30.79 9.69 50.85 2.17 50.85 46.95"/><rect class="cls-5" x="14.63" y="15.11" width="4.95" height="1.18"/><rect class="cls-5" y="32.25" width="4.95" height="1.18"/><rect class="cls-5" x="16.99" y="16.62" width="4.95" height="1.18"/><rect class="cls-5" x="13.94" y="33.31" width="4.95" height="1.18"/><rect class="cls-5" x="2.06" y="33.57" width="4.95" height="1.18"/><rect class="cls-5" x="20.3" y="29.39" width="4.95" height="1.18"/><rect class="cls-5" x="12.99" y="27.83" width="4.95" height="1.18"/><rect class="cls-5" x="17.8" y="21.66" width="4.95" height="1.18"/><rect class="cls-5" x="9.45" y="28.87" width="4.95" height="1.18"/><rect class="cls-6" x="18.83" y="20.36" width="5.98" height="1.25"/><rect class="cls-6" x="20.32" y="24.09" width="5.98" height="1.25"/><rect class="cls-6" x="21.82" y="25.34" width="5.98" height="2.49"/><rect class="cls-6" x="21.82" y="31.57" width="5.98" height="1.25"/><rect class="cls-6" x="20.32" y="14.13" width="4.48" height="2.49"/><rect class="cls-6" x="21.82" y="16.62" width="4.48" height="1.25"/><rect class="cls-6" x="24.81" y="36.55" width="2.99" height="3.74"/><rect class="cls-6" x="26.3" y="39.04" width="2.99" height="2.49"/><rect class="cls-5" x="16.36" y="25.12" width="4.95" height="1.18"/><rect class="cls-5" x="21.8" y="38.43" width="4.95" height="1.18"/><rect class="cls-5" x="23.37" y="37.5" width="4.95" height="1.18"/><rect class="cls-5" x="0.3" y="33.19" width="4.95" height="1.18"/><path d="M101.8,53.32l37.77,0,9.44,0,9.44,0c6.29.1,12.59.19,18.88.44v.08c-6.29.18-12.59.2-18.88.23L149,54l-9.45-.12-37.76-.48Z"/><polygon points="49.48 60.79 107.78 60.52 122.36 60.45 136.93 60.45 151.51 60.58 158.8 60.65 166.09 60.79 166.09 60.86 158.8 60.99 151.51 61.06 136.93 61.2 122.36 61.2 107.78 61.12 49.48 60.86 49.48 60.79"/><text class="cls-7" transform="translate(168.25 62.41) scale(1.2 1)">ウェビッチ</text><path d="M109.52,32.63l2.24-.09a9.87,9.87,0,0,1,2.24.09v0a9.32,9.32,0,0,1-2.24.08l-2.24-.08Z"/><path d="M111,31.39l2.25-.07a12,12,0,0,1,2.24.07v0a12,12,0,0,1-2.24.07L111,31.41Z"/><path d="M70.74,43.61c.16,1.45.92,2.22,2.19,2.22a2.25,2.25,0,0,0,1.62-.66,1.83,1.83,0,0,0,.48-.91l2.8.87A5.27,5.27,0,0,1,76.77,47,4.94,4.94,0,0,1,73,48.49,4.73,4.73,0,0,1,69.25,47a6.47,6.47,0,0,1-1.47-4.36c0-3.53,2-5.87,5.11-5.87,2.51,0,4.26,1.52,4.82,4.18A14.24,14.24,0,0,1,78,43.26c0,.07,0,.17,0,.35Zm4.18-2.46a1.93,1.93,0,0,0-2-1.75,2,2,0,0,0-2.1,1.75Z"/><path d="M88.26,36.06a25.07,25.07,0,0,0,.12-2.81V24a23.84,23.84,0,0,0-.12-2.81h3.26A26.24,26.24,0,0,0,91.4,24v1.5c0,.26,0,.43,0,.68a4.4,4.4,0,0,1,3.31-1.34c2.92,0,4.63,2.07,4.63,5.6A6.84,6.84,0,0,1,97.9,35a4.29,4.29,0,0,1-3.35,1.39,4,4,0,0,1-3.16-1.27s0,.29,0,.38v.57Zm5.68-8.5c-1.46,0-2.5,1.25-2.5,3s1.06,3.11,2.44,3.11,2.33-1.27,2.33-3.16S95.36,27.56,93.94,27.56Z"/><path d="M117,34.17a19,19,0,0,0-.13,2.69v5.5c0,1,0,1.93.13,2.7h-3.36a21.58,21.58,0,0,0,.13-2.7v-5.5a20.44,20.44,0,0,0-.13-2.69Zm0-4v2.68h-3.26V30.2Z"/><path d="M129.94,23.79a19.43,19.43,0,0,0-.13-2.44h3.28a23.06,23.06,0,0,0-.13,2.44v.38h.58a9.9,9.9,0,0,0,1.57-.09v3a9.52,9.52,0,0,0-1.47-.1H133v4.57c0,.49.08.74.29.91a1.33,1.33,0,0,0,.74.19,2,2,0,0,0,1.12-.32l.24,2.71a6.25,6.25,0,0,1-2.21.36,3.65,3.65,0,0,1-2.37-.62,2.66,2.66,0,0,1-.83-2.34V26.94h-.61a9,9,0,0,0-1.4.1v-3a8.94,8.94,0,0,0,1.43.11h.58Z"/><path d="M152.94,36.13a2.74,2.74,0,0,0-.45-1.05,1.63,1.63,0,0,0-1.35-.63c-1.3,0-2.08,1.15-2.08,3.11s.82,3.18,2.11,3.18A1.81,1.81,0,0,0,152.7,40a2,2,0,0,0,.29-.82l2.95.52a5.69,5.69,0,0,1-.67,1.77,4.59,4.59,0,0,1-4.13,2,4.89,4.89,0,0,1-3.75-1.54A6.43,6.43,0,0,1,146,37.59c0-3.57,2-5.85,5.16-5.85a4.51,4.51,0,0,1,4.72,3.73Z"/><path d="M163.19,35.06a21.48,21.48,0,0,0,.13-2.7V22.9a19,19,0,0,0-.13-2.7h3.33a19.49,19.49,0,0,0-.13,2.7v1.89c0,.15,0,.43,0,.59a4.22,4.22,0,0,1,3.34-1.48,3.28,3.28,0,0,1,2.55,1,4.12,4.12,0,0,1,.92,3v4.48a25.4,25.4,0,0,0,.13,2.68H170a21.89,21.89,0,0,0,.13-2.7V28.7a2.34,2.34,0,0,0-.25-1.34,1.19,1.19,0,0,0-1-.48,3,3,0,0,0-2.43,1.86v3.62a23.38,23.38,0,0,0,.13,2.7Z"/><path d="M34.32,7.48l-4.69,2.1A.47.47,0,0,1,29.26,9l.19-1.76a.48.48,0,0,1,.48-.46l4.68-2a.48.48,0,0,1,.37.55L34.79,7A.46.46,0,0,1,34.32,7.48Z"/><polygon class="cls-8" points="48.99 45.67 32.27 52.44 32.27 10.25 49.93 4.17 48.99 45.67"/><ellipse class="cls-9" cx="30.53" cy="7.91" rx="0.1" ry="0.11" transform="translate(21.52 38.13) rotate(-87.92)"/><ellipse class="cls-10" cx="32.01" cy="7.16" rx="0.1" ry="0.11" transform="translate(23.7 38.89) rotate(-87.92)"/><ellipse class="cls-11" cx="33.48" cy="6.48" rx="0.1" ry="0.11" transform="translate(25.79 39.7) rotate(-87.92)"/><g class="cls-12"><text class="cls-3" transform="translate(22.41 39.77) scale(1.2 1)">W</text></g></g></g></g></svg>